<svg id="visual" viewBox="0 0 1920 1080" width="1920" height="1080" xmlns="http://www.w3.org/2000/svg" xmlns:xlink="http://www.w3.org/1999/xlink" version="1.1"><rect x="0" y="0" width="1920" height="1080" fill="#ffffff"></rect><path d="M0 358L45.7 360.8C91.3 363.7 182.7 369.3 274.2 350C365.7 330.7 457.3 286.3 548.8 263.3C640.3 240.3 731.7 238.7 823 250.5C914.3 262.3 1005.7 287.7 1097 290C1188.3 292.3 1279.7 271.7 1371.2 281.8C1462.7 292 1554.3 333 1645.8 346.7C1737.3 360.3 1828.7 346.7 1874.3 339.8L1920 333L1920 0L1874.3 0C1828.7 0 1737.3 0 1645.8 0C1554.3 0 1462.7 0 1371.2 0C1279.7 0 1188.3 0 1097 0C1005.7 0 914.3 0 823 0C731.7 0 640.3 0 548.8 0C457.3 0 365.7 0 274.2 0C182.7 0 91.3 0 45.7 0L0 0Z" fill="#0066FF" stroke-linecap="round" stroke-linejoin="miter"></path></svg>