<svg xmlns="http://www.w3.org/2000/svg" xmlns:xlink="http://www.w3.org/1999/xlink" version="1.1" id="Check" x="0px" y="0px" viewBox="0 0 1920 1080" style="enable-background:new 0 0 1920 1080;" xml:space="preserve">
<style xmlns="http://www.w3.org/2000/svg" type="text/css">
	.st0{opacity:0.1;fill:#2A94F4;}
	.st1{fill:#D3D3D3;}
	.st2{fill:#F2F2F2;}
	.st3{fill:#00aef0;}
	.st4{opacity:0.33;fill:#FFFFFF;}
	.st5{fill:#FFFFFF;}
	.st6{fill:#0B4870;}
	.st7{fill:#FCD2B1;}
	.st8{fill:#0E538C;}
	.st9{fill:#FFE3CA;}
	.st10{fill:#EC4561;}
</style>
<ellipse xmlns="http://www.w3.org/2000/svg" class="st0" cx="928.7" cy="1020.2" rx="605.3" ry="59.8"/>
<g xmlns="http://www.w3.org/2000/svg">
	<rect x="900" y="98.7" class="st1" width="541.9" height="920.6"/>
	<rect x="802.5" y="52" class="st2" width="569.4" height="967.2"/>
	<rect x="705.8" y="8.3" class="st3" width="595.2" height="1011"/>
	<rect x="705.8" y="8.3" class="st4" width="595.2" height="1011"/>
	<g>
		<g>
			<path class="st5" d="M1212.4,549.7H794.3V131.6h418.1V549.7z M823,521.1h360.7V160.3H823V521.1z"/>
		</g>
	</g>
	<g>
		<path class="st6" d="M777.6,322c16.9,24.1,33.8,48.2,50.7,72.4c26.8,38.3,53.6,76.5,80.5,114.8c6.3,8.9,12.5,17.8,18.8,26.8    c3.4,4.8,17.2,20.8,23.2,10.8c17.9-30.4,36.8-60.2,55.9-89.8c42.5-65.8,87-130.4,134.5-192.7c28.9-37.9,59-74.9,91.2-110    c13-14.2-22.2-61.3-30.8-52c-58.1,63.3-110,132-159.2,202.3C1005,358,969.2,412.5,935,468c-2.6,4.2-5.2,8.4-7.8,12.6    c-3.9,6.4-2.4,10-9.4,0c-9.9-14.1-19.8-28.2-29.7-42.4c-26.8-38.3-53.6-76.5-80.5-114.8c-6.3-8.9-12.5-17.8-18.8-26.8    c-3.2-4.6-17.8-21.2-23.2-10.8C760.4,296.3,772.2,314.3,777.6,322L777.6,322z"/>
	</g>
	<rect x="794.3" y="676.8" class="st5" width="418.1" height="30.9"/>
	<rect x="794.3" y="744.6" class="st5" width="418.1" height="30.9"/>
	<rect x="794.3" y="819.7" class="st5" width="282.5" height="30.9"/>
</g>
<g xmlns="http://www.w3.org/2000/svg">
	<path class="st6" d="M580.2,260.9c0,0,21.8-46.4,11.8-67.5s-26.6-25.8-46.1-22.3s-26.3-6.9-29.2-4s-5.1,12.6-2.6,12.6   c2.6,0-8.3,8-6.6,13.7c1.7,5.7-13.5,63.7,27.9,70.6S580.2,260.9,580.2,260.9z"/>
	<polygon class="st7" points="462.8,992 489.6,992 492.9,961.1 466.2,961.1  "/>
	<path class="st6" d="M462.8,980.2c0,0-24,19.5-41.4,17.7c-17.4-1.7-18.4,13.2-18.7,20.9h55.5c0,0,11.2-10.6,18.4,0h16.4v-12.3   v-26.3C492.9,980.2,477.6,987.1,462.8,980.2z"/>
	<polygon class="st7" points="624.8,992 598.1,992 594.7,961.1 621.5,961.1  "/>
	<path class="st8" d="M472,543.2l-13.2,422.7h40.1c0,0,14.9-294.7,44-311.9c32.2-19,49,311.9,49,311.9h34c0,0-8.8-409.5-12.2-422.7   C612.6,538.3,494.4,490.2,472,543.2z"/>
	<path class="st3" d="M492,302.6c0,0,39-36,100-6.6c14.9,7.2,21.9,235.8,21.9,247.3c0,0-50.2,29.8-141.8,0   C472,543.2,488.2,305.2,492,302.6z"/>
	<path class="st7" d="M636.7,349.6c0,0,58.2,61.9,71.1,58.8c20-4.8,79.8-21,79.8-21l6.5,12.2c0,0-62.2,41-88.8,43.5   c-26.6,2.5-91.6-69-91.6-69L636.7,349.6z"/>
	<path class="st7" d="M475.7,371.4c0,0-44.8,51.9-45.4,66.8c-0.6,14.9,37.3,75.2,37.3,75.2l-8.7,15.7c0,0-54.3-59.6-63.1-81.2   s55.6-98.7,55.6-98.7L475.7,371.4z"/>
	<path class="st3" d="M478.5,381.9l-34.1-35.7c0,0,44-56,73.2-54.8C540,292.3,523.7,354.6,478.5,381.9z"/>
	<path class="st3" d="M607.1,380.8l34.5-35.3c0,0-30-51.9-59.2-51C560.1,295.1,562.3,352.9,607.1,380.8z"/>
	<path class="st7" d="M522.9,241.4v51.7c0,10.2,8.3,18.5,18.5,18.5h0c10.2,0,18.5-8.3,18.5-18.5v-54.7L522.9,241.4z"/>
	<path class="st9" d="M584.8,193.4c0,0,20.6,67.5-8,77.4s-51.9-10.7-52.3-25.9c0,0-20.3-14.9-4.2-26.3c5.3-3.8,10.3,3.8,10.3,9.5   c0,5.7,3.8,1.5,3.8-1.1s0-25.6,0-25.6S579.1,220.4,584.8,193.4z"/>
	<path class="st6" d="M624.9,980.2c0,0,24,19.5,41.4,17.7c17.4-1.7,18.4,13.2,18.7,20.9h-55.5c0,0-11.2-10.6-18.4,0h-16.4v-12.3   v-26.3C594.7,980.2,610,987.1,624.9,980.2z"/>
	<path class="st7" d="M467.5,513.4c0,0,12,8.1,8.1,23.1c-3.9,15.1-14.9,29.5-25.6,28.8c-3.7-0.3-6.9-1.4-9.7-2.8   c-6.1-3-9-10.3-6-16.4c0.9-1.9,2.1-2.8,3.6-0.9c4.1,5.3,22-5.9,20.9-16.2C457.7,518.8,448.3,500.4,467.5,513.4z"/>
	<g>
		<g>
			<rect x="713.4" y="243.5" class="st3" width="80.7" height="698.3"/>
			<path class="st7" d="M713.4,243.5l40.3-81.8l40.3,81.8c0,0-15.6,8-40.3,8C729,251.5,713.4,243.5,713.4,243.5z"/>
			<polygon class="st6" points="736.9,195.8 753.7,161.7 770.5,195.8    "/>
			<path class="st10" d="M780.3,1019.2h-53.1c-7.6,0-13.8-6.2-13.8-13.8v-65.2H794v65.2C794,1013,787.9,1019.2,780.3,1019.2z"/>
			<rect x="713.4" y="911.2" class="st1" width="80.7" height="49.2"/>
		</g>
		<path class="st9" d="M794,363.9c0,0,10.9,38.1-6.3,37.6C770.6,400.9,762.6,376.5,794,363.9z"/>
	</g>
</g>
</svg>