<svg xmlns="http://www.w3.org/2000/svg" xmlns:xlink="http://www.w3.org/1999/xlink" version="1.1" id="Layer_1" x="0px" y="0px" viewBox="0 0 1080 1080" style="enable-background:new 0 0 1080 1080;" xml:space="preserve">
<style type="text/css">
	.st0{fill:#F7F7F7;}
	.st1{fill:#F2F2F2;}
	.st2{fill:#B6E7FF;}
	.st3{fill:#FFFFFF;}
	.st4{fill:none;stroke:#B6E7FF;stroke-miterlimit:10;}
	.st5{fill:#5AB8FF;}
	.st6{fill:#FFBE55;}
	.st7{fill:#FFA357;}
	.st8{fill:#FF6757;}
	.st9{fill:#2D2D2D;}
	.st10{fill:none;stroke:#F7F7F7;stroke-width:2;stroke-linecap:round;stroke-miterlimit:10;}
	.st11{fill:none;stroke:#CCE9FF;stroke-linecap:round;stroke-miterlimit:10;}
	.st12{fill:#2A94F4;stroke:#2A94F4;stroke-linecap:round;stroke-miterlimit:10;}
	.st13{fill:#CCE9FF;}
	.st14{fill:#1371B7;}
	.st15{fill:#0B4870;}
	.st16{fill:#FFC99C;}
	.st17{fill:#FFE3CA;}
	.st18{fill:#FFA42C;}
	.st19{fill:#FFD4B0;}
	.st20{fill:#2A94F4;}
	.st21{fill:none;stroke:#CCE9FF;stroke-miterlimit:10;}
	.st22{fill-rule:evenodd;clip-rule:evenodd;fill:#2A94F4;}
	.st23{fill-rule:evenodd;clip-rule:evenodd;fill:#0B4870;}
	.st24{fill-rule:evenodd;clip-rule:evenodd;fill:#FFBE55;}
</style>
<g>
	<path class="st0" d="M705.24,169.94c26.08,0.3,52.16,5.91,75.79,17.04c16.77,7.9,32,18.25,44.19,31.34   c24.38,26.19,34.01,64.52,17.37,93.29c-13.89,24.01-44.45,41.22-44.81,68.86c-0.43,32.2,40.43,53.66,76.04,60.32   s75.56,7.93,102.3,30.88c23.01,19.75,29.15,51.39,21.5,77.87c-7.65,26.49-27.01,48.53-48.57,67.37   c-54.02,47.21-123.35,78.25-194.41,102.73c-150.15,51.72-313.01,76.93-477.05,73.85c-40.96-0.77-86.7-5.19-115.42-32.81   c-28.96-27.84-29.89-71.96-10.94-103.85c18.95-31.89,53.83-53.32,90.26-68.93s75.51-26.52,110.97-43.69   c26.77-12.96,54.24-37.74,42.86-64.31c-8.08-18.87-31.81-27.98-52.7-35.65c-29.51-10.85-58.9-23.46-83.02-42.53   c-24.13-19.07-42.64-45.52-44.48-73.57c-1.72-26.19,11.27-51.17,30.45-69.92c19.19-18.75,44.18-31.97,69.79-43.26   C416.51,170.4,634.83,169.11,705.24,169.94z"/>
</g>
<path class="st1" d="M1029.08,1004.58H62.92c-5.21,0-9.47-4.26-9.47-9.47v-36.24c0-5.21,4.26-9.47,9.47-9.47h966.15  c5.21,0,9.47,4.26,9.47,9.47v36.24C1038.55,1000.32,1034.29,1004.58,1029.08,1004.58z"/>
<g>
	<path class="st2" d="M747.25,976.83h-380.3c-31.93,0-57.82-25.89-57.82-57.82V136.82c0-31.93,25.89-57.82,57.82-57.82h380.3   c31.93,0,57.82,25.89,57.82,57.82v782.19C805.07,950.94,779.19,976.83,747.25,976.83z"/>
	<path class="st3" d="M742.46,949.47H371.75c-19.47,0-35.26-15.78-35.26-35.26V143.33c0-19.47,15.78-35.26,35.26-35.26h370.71   c19.47,0,35.26,15.78,35.26,35.26v770.88C777.71,933.68,761.93,949.47,742.46,949.47z"/>
	<path class="st2" d="M416.01,104.65l23.08,29.38c9.22,11.74,22.77,18.5,37.05,18.5h160.2c14.28,0,27.83-6.77,37.05-18.5   l23.08-29.38H416.01z"/>
</g>
<path class="st4" d="M403.5,149h-34c-6.9,0-12.5-5.6-12.5-12.5v0c0-6.9,5.6-12.5,12.5-12.5h34c6.9,0,12.5,5.6,12.5,12.5v0  C416,143.4,410.4,149,403.5,149z"/>
<polygon class="st4" points="682.5,148.5 709.5,148.5 709.5,128.5 "/>
<path class="st4" d="M748.01,148.5h-25.02c-3.58,0-6.49-2.9-6.49-6.49v-7.02c0-3.58,2.9-6.49,6.49-6.49h25.02  c3.58,0,6.49,2.9,6.49,6.49v7.02C754.5,145.6,751.6,148.5,748.01,148.5z"/>
<rect x="754" y="134" class="st2" width="4" height="10"/>
<g>
	<path class="st5" d="M369.19,267.84H745.3c6.65,0,12.03,5.39,12.03,12.03v211.93c0,6.65-5.39,12.03-12.03,12.03H369.19   c-6.65,0-12.03-5.39-12.03-12.03V279.87C357.16,273.23,362.54,267.84,369.19,267.84z"/>
	<rect x="373" y="283.84" class="st2" width="122" height="25"/>
	<path class="st0" d="M657.43,308.84h-7.58c-6.9,0-12.5-5.6-12.5-12.5v0c0-6.9,5.6-12.5,12.5-12.5h7.58c6.9,0,12.5,5.6,12.5,12.5v0   C669.93,303.24,664.33,308.84,657.43,308.84z"/>
	<path class="st0" d="M728.11,308.84h-39.54c-6.9,0-12.5-5.6-12.5-12.5v0c0-6.9,5.6-12.5,12.5-12.5h39.54c6.9,0,12.5,5.6,12.5,12.5   v0C740.61,303.24,735.02,308.84,728.11,308.84z"/>
	<g>
		<path class="st0" d="M620.85,301.43c0.98,0.93,2.57,1.71,4.03,1.71c1.23,0,2.37-0.64,2.37-1.96c0-2.73-7.7-2.46-7.7-7.36    c0-2.35,1.75-4.17,4.28-4.58v-2.14h1.94v2.1c1.46,0.11,2.87,0.64,4.01,1.66l-1.28,2.39c-0.89-0.77-2.28-1.41-3.55-1.41    c-1.37,0-2.46,0.8-2.46,1.94c0,2.71,7.7,2.23,7.7,7.33c0,2.32-1.62,4.31-4.42,4.67v2.1h-1.94v-2.1c-1.64-0.18-3.39-0.91-4.56-2.14    L620.85,301.43z"/>
	</g>
	<g>
		<path class="st3" d="M375.2,478.2c0-1.78,1.39-3.17,3.15-3.17c1.78,0,3.17,1.39,3.17,3.17c0,1.76-1.39,3.15-3.17,3.15    C376.59,481.35,375.2,479.96,375.2,478.2z"/>
		<path class="st3" d="M387.82,478.2c0-1.78,1.39-3.17,3.15-3.17c1.78,0,3.17,1.39,3.17,3.17c0,1.76-1.39,3.15-3.17,3.15    C389.21,481.35,387.82,479.96,387.82,478.2z"/>
		<path class="st3" d="M400.44,478.2c0-1.78,1.39-3.17,3.15-3.17c1.78,0,3.17,1.39,3.17,3.17c0,1.76-1.39,3.15-3.17,3.15    C401.83,481.35,400.44,479.96,400.44,478.2z"/>
		<path class="st3" d="M413.07,478.2c0-1.78,1.39-3.17,3.15-3.17c1.78,0,3.17,1.39,3.17,3.17c0,1.76-1.39,3.15-3.17,3.15    C414.45,481.35,413.07,479.96,413.07,478.2z"/>
		<path class="st3" d="M436.98,469.55c4.37,0,5.9,3.28,5.9,7.77c0,4.54-1.53,7.81-5.9,7.81s-5.9-3.28-5.9-7.81    C431.08,472.82,432.62,469.55,436.98,469.55z M436.98,472.91c-2.12,0-2.37,2.06-2.37,4.41c0,2.44,0.25,4.45,2.37,4.45    s2.37-2.02,2.37-4.45C439.36,474.96,439.1,472.91,436.98,472.91z"/>
		<path class="st3" d="M452.78,469.55c4.37,0,5.9,3.28,5.9,7.77c0,4.54-1.53,7.81-5.9,7.81s-5.9-3.28-5.9-7.81    C446.88,472.82,448.41,469.55,452.78,469.55z M452.78,472.91c-2.12,0-2.37,2.06-2.37,4.41c0,2.44,0.25,4.45,2.37,4.45    s2.37-2.02,2.37-4.45C455.15,474.96,454.9,472.91,452.78,472.91z"/>
		<path class="st3" d="M468.57,469.55c4.37,0,5.9,3.28,5.9,7.77c0,4.54-1.53,7.81-5.9,7.81s-5.9-3.28-5.9-7.81    C462.67,472.82,464.2,469.55,468.57,469.55z M468.57,472.91c-2.12,0-2.37,2.06-2.37,4.41c0,2.44,0.25,4.45,2.37,4.45    s2.37-2.02,2.37-4.45C470.94,474.96,470.69,472.91,468.57,472.91z"/>
		<path class="st3" d="M484.36,469.55c4.37,0,5.9,3.28,5.9,7.77c0,4.54-1.53,7.81-5.9,7.81s-5.9-3.28-5.9-7.81    C478.46,472.82,479.99,469.55,484.36,469.55z M484.36,472.91c-2.12,0-2.37,2.06-2.37,4.41c0,2.44,0.25,4.45,2.37,4.45    s2.37-2.02,2.37-4.45C486.73,474.96,486.48,472.91,484.36,472.91z"/>
	</g>
	<g>
		<path class="st6" d="M740.56,464.19c0,11.56-9.38,20.94-20.94,20.94c-6.03,0-11.46-2.55-15.28-6.62    c3.52-3.75,5.67-8.78,5.67-14.32c0-5.54-2.15-10.58-5.67-14.32c3.82-4.07,9.25-6.62,15.28-6.62    C731.18,443.25,740.56,452.62,740.56,464.19z"/>
		<path class="st7" d="M710.01,464.19c0,5.54-2.15,10.57-5.67,14.32c-3.51-3.75-5.66-8.78-5.66-14.32c0-5.54,2.15-10.58,5.66-14.32    C707.86,453.61,710.01,458.65,710.01,464.19z"/>
		<path class="st8" d="M698.68,464.19c0,5.54,2.15,10.57,5.66,14.32c-3.82,4.07-9.25,6.62-15.27,6.62    c-11.56,0-20.94-9.38-20.94-20.94c0-11.57,9.38-20.94,20.94-20.94c6.03,0,11.46,2.55,15.27,6.62    C700.83,453.61,698.68,458.65,698.68,464.19z"/>
	</g>
</g>
<g>
	<g>
		<g>
			<path class="st9" d="M358.74,211.01c0.06-0.54,0.1-1.08,0.18-1.61c0.37-2.44,1.22-4.67,2.84-6.57c1.84-2.15,4.16-3.44,6.96-3.88     c1.83-0.29,3.57,0.07,5.27,0.7c0.67,0.25,1.34,0.49,1.99,0.76c1.1,0.45,2.18,0.42,3.28,0c0.93-0.36,1.87-0.71,2.82-1.04     c1.16-0.4,2.35-0.68,3.58-0.67c1.74,0.01,3.42,0.33,5.01,1.06c1.56,0.71,2.87,1.75,3.9,3.11c0.22,0.29,0.22,0.28-0.08,0.48     c-1.95,1.29-3.41,2.99-4.18,5.22c-0.51,1.47-0.57,2.99-0.34,4.52c0.31,1.99,1.18,3.7,2.59,5.13c0.92,0.93,1.97,1.67,3.17,2.19     c0.2,0.09,0.22,0.18,0.16,0.37c-0.62,1.75-1.4,3.42-2.4,5c-1.01,1.6-2.11,3.15-3.45,4.5c-0.72,0.72-1.53,1.32-2.5,1.67     c-1.41,0.52-2.81,0.44-4.2-0.05c-0.74-0.26-1.45-0.59-2.19-0.85c-2.13-0.76-4.25-0.65-6.35,0.15c-0.75,0.29-1.49,0.62-2.26,0.86     c-2.13,0.66-3.98,0.16-5.62-1.3c-0.87-0.78-1.63-1.66-2.34-2.59c-1.13-1.48-2.18-3.01-3.01-4.69c-1.23-2.5-2.1-5.11-2.56-7.85     c-0.13-0.79-0.23-1.58-0.26-2.38c0-0.06-0.02-0.13-0.03-0.19C358.74,212.37,358.74,211.69,358.74,211.01z"/>
			<path class="st9" d="M480.03,203.1c-0.29,0.7-0.58,1.4-0.87,2.1c-2.55,6.31-5.11,12.61-7.64,18.92     c-0.97,2.41-1.88,4.83-2.92,7.21c-1.14,2.6-2.43,5.12-4.07,7.46c-1.15,1.65-2.58,3.01-4.21,4.19c-1,0.73-2.11,1.25-3.24,1.73     c-0.08,0.03-0.16,0.08-0.24,0.12c-0.05,0-0.1,0-0.15,0c-0.29-0.69-0.58-1.39-0.88-2.08c-0.09-0.2-0.06-0.29,0.14-0.39     c1.05-0.48,2.08-1.01,3.03-1.67c1.36-0.94,2.47-2.13,3.5-3.4c1.39-1.71,2.46-3.6,3.24-5.66c0.22-0.58,0.19-1.12-0.04-1.69     c-2.34-5.86-4.68-11.73-7.01-17.59c-1.2-3.01-2.4-6.02-3.6-9.03c-0.12-0.31-0.11-0.32,0.22-0.32c0.82,0,1.65,0.01,2.47,0     c0.21,0,0.32,0.06,0.4,0.26c2.46,6.16,4.93,12.32,7.39,18.49c0.76,1.91,1.4,3.86,2.02,5.82c0.03,0.09,0.02,0.25,0.14,0.24     c0.1,0,0.1-0.15,0.12-0.24c0.98-3.14,2.17-6.21,3.33-9.29c1.88-4.98,3.76-9.97,5.63-14.96c0.09-0.23,0.19-0.33,0.45-0.32     c0.92,0.02,1.84,0.01,2.76,0.02C480.03,203.04,480.03,203.07,480.03,203.1z"/>
			<path class="st9" d="M386.49,188.06c0.22,2.97-0.84,5.47-2.87,7.58c-1.35,1.4-3.01,2.3-4.96,2.6c-0.38,0.06-0.77,0.08-1.16,0.08     c-0.17,0-0.24-0.06-0.26-0.24c-0.16-1.43,0.16-2.77,0.75-4.05c1.42-3.07,3.84-4.93,7.08-5.8c0.27-0.07,0.55-0.11,0.83-0.16     C386.1,188.06,386.29,188.06,386.49,188.06z"/>
			<path class="st9" d="M407.14,211.78c0-6.5,0-13,0-19.5c0-0.4,0-0.4,0.41-0.45c1.14-0.15,2.27-0.32,3.41-0.46     c0.83-0.1,1.67-0.16,2.51-0.21c1.01-0.06,2.02-0.08,3.03-0.05c2.56,0.08,5.05,0.45,7.38,1.59c3.16,1.54,4.97,4.09,5.56,7.52     c0.33,1.9,0.25,3.79-0.23,5.65c-0.76,2.91-2.44,5.16-4.99,6.75c-1.85,1.16-3.89,1.77-6.03,2.09c-1.27,0.19-2.56,0.27-3.84,0.23     c-1.35-0.04-2.7-0.1-4.02-0.37c-0.25-0.05-0.26,0.07-0.26,0.26c0,5.46,0,10.92,0,16.37c0,0.57,0.05,0.53-0.54,0.53     c-0.68,0-1.36,0-2.04,0c-0.35,0-0.35,0-0.35-0.35c0-4.33,0-8.67,0-13C407.14,216.18,407.14,213.98,407.14,211.78z M410.07,203.01     c0,2.87,0,5.74-0.01,8.61c0,0.27,0.08,0.38,0.34,0.44c1.36,0.34,2.75,0.37,4.14,0.43c0.96,0.04,1.92-0.03,2.88-0.13     c1.72-0.17,3.35-0.61,4.86-1.46c1.7-0.95,2.94-2.31,3.64-4.13c0.74-1.92,0.87-3.9,0.56-5.92c-0.35-2.36-1.5-4.24-3.56-5.51     c-1.84-1.13-3.87-1.6-5.99-1.74c-0.95-0.06-1.9-0.05-2.86-0.01c-1.23,0.04-2.45,0.18-3.66,0.38c-0.35,0.06-0.35,0.06-0.35,0.43     C410.07,197.28,410.07,200.15,410.07,203.01z"/>
			<path class="st9" d="M452.49,219.7c0,2.38-0.01,4.46,0,6.54c0.01,1.57,0.04,3.14,0.29,4.69c0.03,0.19,0.06,0.38,0.1,0.57     c0.03,0.15-0.02,0.23-0.19,0.23c-0.77,0-1.54,0-2.3,0c-0.22,0-0.24-0.13-0.25-0.3c-0.12-1.18-0.25-2.36-0.38-3.54     c-0.01-0.07,0.02-0.17-0.06-0.19c-0.1-0.03-0.12,0.08-0.17,0.14c-1.67,2.27-3.87,3.75-6.64,4.3c-2.19,0.44-4.35,0.34-6.41-0.59     c-1.94-0.87-3.3-2.31-3.98-4.34c-0.83-2.47-0.63-4.88,0.57-7.19c0.68-1.31,1.72-2.32,2.93-3.15c1.58-1.09,3.34-1.72,5.19-2.14     c1.28-0.3,2.59-0.48,3.9-0.6c1.34-0.12,2.68-0.15,4.02-0.17c0.45-0.01,0.45,0,0.45-0.45c-0.01-1.42-0.09-2.83-0.53-4.19     c-0.79-2.44-2.44-4-4.99-4.39c-2.9-0.45-5.64,0.14-8.21,1.56c-0.2,0.11-0.39,0.23-0.58,0.35c-0.12,0.07-0.18,0.05-0.24-0.08     c-0.25-0.59-0.51-1.17-0.77-1.75c-0.07-0.16-0.03-0.25,0.11-0.34c1.34-0.88,2.78-1.51,4.34-1.89c1.58-0.38,3.18-0.5,4.79-0.43     c2.15,0.1,4.12,0.7,5.77,2.14c1.29,1.12,2.13,2.53,2.61,4.15c0.37,1.25,0.54,2.54,0.6,3.85     C452.55,215.01,452.45,217.51,452.49,219.7z M449.55,219.67c0-1-0.01-2.01,0-3.01c0-0.23-0.06-0.3-0.3-0.31     c-1.29,0-2.57,0.04-3.85,0.14c-1.33,0.11-2.65,0.28-3.94,0.64c-1.49,0.41-2.9,1-4.11,2c-0.98,0.81-1.71,1.78-2.02,3.03     c-0.25,0.99-0.27,1.98-0.15,2.98c0.09,0.77,0.29,1.51,0.69,2.18c0.7,1.16,1.77,1.85,3.01,2.28c1.14,0.4,2.32,0.38,3.5,0.21     c2.64-0.38,4.7-1.67,6.12-3.96c0.71-1.15,1.08-2.39,1.06-3.75C449.54,221.31,449.55,220.49,449.55,219.67z"/>
		</g>
	</g>
</g>
<line class="st10" x1="357.16" y1="569.95" x2="757.33" y2="569.95"/>
<g>
	<path class="st1" d="M557.24,544.5c-0.37,0-0.75-0.06-1.12-0.18l-26.61-8.99c-1.46-0.49-2.38-1.85-2.38-3.31   c0-0.37,0.06-0.75,0.18-1.12c0.62-1.83,2.6-2.81,4.44-2.2l25.49,8.61l25.49-8.61c1.84-0.62,3.82,0.37,4.44,2.2   c0.62,1.83-0.37,3.82-2.2,4.44l-26.58,8.97C558.03,544.44,557.64,544.5,557.24,544.5z"/>
</g>
<path class="st11" d="M730.16,833.25H382.58c-13.17,0-23.84-10.68-23.84-23.84V629.18c0-13.17,10.68-23.84,23.84-23.84h347.58  c13.17,0,23.84,10.68,23.84,23.84v180.23C754,822.58,743.32,833.25,730.16,833.25z"/>
<path class="st12" d="M754,753.44v55.97c0,13.17-10.68,23.84-23.84,23.84H382.58c-13.17,0-23.84-10.67-23.84-23.84v-55.97H754z"/>
<circle class="st12" cx="413.07" cy="684.4" r="34.7"/>
<path class="st13" d="M436.43,949.47c6.97-6.33,11.34-15.48,11.34-25.64c0-19.17-15.54-34.71-34.7-34.71  c-19.17,0-34.71,15.54-34.71,34.71c0,10.16,4.37,19.31,11.34,25.64H436.43z"/>
<path class="st13" d="M731.94,667.04H495.41c-4.77,0-8.68-3.9-8.68-8.68l0,0c0-4.77,3.9-8.68,8.68-8.68h236.53  c4.77,0,8.68,3.9,8.68,8.68l0,0C740.61,663.14,736.71,667.04,731.94,667.04z"/>
<path class="st1" d="M723.26,719.1H504.08c-9.54,0-17.35-7.81-17.35-17.35v0c0-9.54,7.81-17.35,17.35-17.35h219.18  c9.54,0,17.35,7.81,17.35,17.35v0C740.61,711.29,732.81,719.1,723.26,719.1z"/>
<path class="st1" d="M723.26,936.65H504.08c-9.54,0-17.35-7.81-17.35-17.35v0c0-9.54,7.81-17.35,17.35-17.35h219.18  c9.54,0,17.35,7.81,17.35,17.35v0C740.61,928.84,732.81,936.65,723.26,936.65z"/>
<path class="st11" d="M357.16,946.31v-61.83c0-6.6,5.4-12,12-12H742c6.6,0,12,5.4,12,12v63.06"/>
<g>
	<path class="st14" d="M969.1,931.65c-0.35,9.05-12.88,27.94-10.79,31.55c2.09,3.6,23.66,9.27,28.19,0   c4.52-9.27-4.18-24.93-4.18-31.55S969.1,931.65,969.1,931.65z"/>
	<path class="st14" d="M929.67,931.17c-5.46,9.49-30.48,25.3-32.49,30.19c-2.01,4.89,46.58-0.17,56.93-12.65   c-3.74-11.21-6.61-20.13-6.61-20.13L929.67,931.17z"/>
	<path class="st15" d="M953.91,693.84c6.42,4.63,23.45,43.66,17.83,137.93c15.58,56.05,16.16,104.46,16.16,104.46h-24.64   c0,0-10.15-92.7-13.41-99.71c-3.26-7.01-36.38-106.35-24.09-142.49S953.91,693.84,953.91,693.84z"/>
	<path class="st15" d="M935.08,682.57c6.42,4.63,9.86,50.76,4.24,145.03c15.58,56.05,16.16,108.63,16.16,108.63H925.6   c0,0-4.92-96.88-8.18-103.89c-3.26-7.01-36.38-102.18-24.09-138.32S935.08,682.57,935.08,682.57z"/>
	<g>
		<path class="st14" d="M912.62,519.64c-17.83-3.13-43.17,8.34-33.79,47.98c9.39,39.64-38.48,14.6-43.17,49.03    c-4.69,34.42,56.31,75.1,105.11-1.04C989.58,539.46,912.62,519.64,912.62,519.64z"/>
		<path class="st16" d="M927.17,561.89c2.82,5.22,10.32,16.69,10.32,16.69l-15.95,10.43l-1.88-16.69L927.17,561.89z"/>
		<path class="st17" d="M923.37,549.68c5.65,10.34,4.73,28.05-3.69,33.73s-21.15-2.83-26.8-13.17s-3.4-23.33,5.02-29.01    S917.72,539.33,923.37,549.68z"/>
		<path class="st14" d="M886.34,553.02c11.26,11.47,39.42,2.09,39.42-5.22c0-7.3-7.51-17.73-7.51-17.73h-13.14L886.34,553.02z"/>
		<ellipse class="st17" cx="924.35" cy="554.06" rx="3.28" ry="6.26"/>
		<ellipse class="st18" cx="927.17" cy="559.8" rx="2.35" ry="2.61"/>
	</g>
	<path class="st19" d="M950.16,579.1c0,0,17.45,0.22,21.59,6.13c4.13,5.91,67.73,83.96-2.76,129.91c-4.77-4.42-6.36-7.95-6.36-7.95   s48.7-41.93,9.12-72.8c-39.59-30.87-38.42-51.19-38.42-51.19L950.16,579.1z"/>
	<path class="st17" d="M906.05,596.83c0,0-15.95,6.26-17.83,22.95s-0.94,61.54,1.88,64.67c2.82,3.13,8.59,7.48,10.86,2.17   C903.24,681.32,906.05,596.83,906.05,596.83z"/>
	<path class="st20" d="M937.02,575.97c0,0-29.09,15.65-30.97,20.86c-1.88,5.22-6.57,30.25-10.32,36.51s6.57,25.03,6.57,25.03   l-6.57,26.08c0,0,36.6,16.69,58.19,9.39c2.82-23.99,9.39-55.28,17.83-59.46c-5.63-10.43-30.03-14.6-21.59-55.28   C942.65,577.01,937.02,575.97,937.02,575.97z"/>
	<polygon class="st6" points="920.6,637.69 905.43,643.96 896.11,616.08 911.28,609.81  "/>
	<path class="st19" d="M895.73,634.38c-6.57,16.69-16.89,56.33,2.82,56.33c4.69,0,5.63-49.03,5.63-53.2   C901.36,634.38,895.73,634.38,895.73,634.38z"/>
	<path class="st19" d="M895.73,634.38c0,0,5.63-12.52,9.39-11.47c3.75,1.04,15.02,3.13,15.02,6.26s-15.95,8.34-15.95,8.34h-5.63   L895.73,634.38z"/>
	<path class="st19" d="M963.33,725.27c6.02-2.87,13.31-18.4-2.05-18.43c-7.08-0.01-7.68,15.1-7.68,15.1L963.33,725.27z"/>
</g>
<g>
	<g>
		<path class="st21" d="M848.45,460.5c4.72,4.5,12.41,8.24,19.44,8.24c5.93,0,11.42-3.08,11.42-9.45    c0-13.18-37.12-11.86-37.12-35.47c0-11.31,8.46-20.1,20.65-22.07v-10.32h9.34v10.1c7.03,0.55,13.84,3.07,19.33,8.02l-6.15,11.53    c-4.28-3.73-10.98-6.81-17.13-6.81c-6.59,0-11.86,3.84-11.86,9.34c0,13.07,37.12,10.76,37.12,35.36c0,11.2-7.8,20.76-21.31,22.52    v10.1h-9.34v-10.1c-7.91-0.88-16.36-4.39-21.97-10.32L848.45,460.5z"/>
	</g>
	<g>
		<path class="st21" d="M913.55,413.05c2.81,2.68,7.38,4.9,11.57,4.9c3.53,0,6.8-1.83,6.8-5.62c0-7.84-22.09-7.06-22.09-21.11    c0-6.73,5.03-11.96,12.29-13.13v-6.14h5.55v6.01c4.18,0.32,8.23,1.83,11.5,4.77l-3.66,6.86c-2.55-2.22-6.53-4.05-10.19-4.05    c-3.92,0-7.06,2.29-7.06,5.55c0,7.78,22.09,6.4,22.09,21.04c0,6.67-4.64,12.35-12.68,13.4v6.01h-5.55v-6.01    c-4.71-0.52-9.74-2.61-13.07-6.14L913.55,413.05z"/>
	</g>
</g>
<g>
	<g>
		<path class="st13" d="M854.49,454.05c4.72,4.5,12.41,8.24,19.44,8.24c5.93,0,11.42-3.08,11.42-9.45    c0-13.18-37.12-11.86-37.12-35.47c0-11.31,8.46-20.1,20.65-22.07v-10.32h9.34v10.1c7.03,0.55,13.84,3.07,19.33,8.02l-6.15,11.53    c-4.28-3.73-10.98-6.81-17.13-6.81c-6.59,0-11.86,3.84-11.86,9.34c0,13.07,37.12,10.76,37.12,35.36c0,11.2-7.8,20.76-21.31,22.52    v10.1h-9.34v-10.1c-7.91-0.88-16.36-4.39-21.97-10.32L854.49,454.05z"/>
	</g>
	<g>
		<path class="st13" d="M919.59,406.61c2.81,2.68,7.38,4.9,11.57,4.9c3.53,0,6.8-1.83,6.8-5.62c0-7.84-22.09-7.06-22.09-21.11    c0-6.73,5.03-11.96,12.29-13.13v-6.14h5.55v6.01c4.18,0.32,8.23,1.83,11.5,4.77l-3.66,6.86c-2.55-2.22-6.53-4.05-10.19-4.05    c-3.92,0-7.06,2.29-7.06,5.55c0,7.78,22.09,6.4,22.09,21.04c0,6.67-4.64,12.35-12.68,13.4v6.01h-5.55v-6.01    c-4.71-0.52-9.74-2.61-13.07-6.14L919.59,406.61z"/>
	</g>
</g>
<g>
	<g>
		<g>
			<rect x="138.45" y="779.82" class="st22" width="183.69" height="193.19"/>
			<path class="st23" d="M230.3,752.26c12.54,0,23.9,5.08,32.12,13.3c8.22,8.22,13.3,19.58,13.3,32.12h-4.97     c0-11.17-4.53-21.29-11.85-28.61c-7.32-7.32-17.44-11.85-28.61-11.85c-11.17,0-21.29,4.53-28.61,11.85     c-7.32,7.32-11.85,17.44-11.85,28.61h-4.97c0-12.54,5.08-23.9,13.3-32.12C206.4,757.34,217.75,752.26,230.3,752.26z"/>
			<g>
				<path class="st23" d="M187.9,806.83c3.06,0,5.56-2.5,5.56-5.56c0-3.06-2.49-5.56-5.56-5.56c-3.06,0-5.55,2.5-5.55,5.56      C182.35,804.33,184.84,806.83,187.9,806.83z"/>
				<path class="st23" d="M272.69,806.83c3.06,0,5.55-2.5,5.55-5.56c0-3.06-2.5-5.56-5.55-5.56c-3.06,0-5.56,2.5-5.56,5.56      C267.13,804.33,269.63,806.83,272.69,806.83z"/>
			</g>
		</g>
	</g>
	<g>
		<g>
			<rect x="94.22" y="836.94" class="st24" width="129.38" height="136.07"/>
			<path class="st23" d="M158.91,817.52c8.83,0,16.83,3.58,22.62,9.37c5.79,5.79,9.37,13.79,9.37,22.62h-3.5     c0-7.87-3.19-14.99-8.35-20.15c-5.16-5.16-12.28-8.35-20.15-8.35c-7.87,0-14.99,3.19-20.15,8.35     c-5.16,5.16-8.35,12.28-8.35,20.15h-3.5c0-8.83,3.58-16.83,9.37-22.62C142.08,821.11,150.08,817.52,158.91,817.52z"/>
			<g>
				<path class="st23" d="M129.05,855.96c2.16,0,3.92-1.76,3.92-3.91c0-2.15-1.76-3.91-3.92-3.91c-2.15,0-3.91,1.76-3.91,3.91      C125.14,854.2,126.9,855.96,129.05,855.96z"/>
				<path class="st23" d="M188.77,855.96c2.15,0,3.91-1.76,3.91-3.91c0-2.15-1.76-3.91-3.91-3.91c-2.15,0-3.91,1.76-3.91,3.91      C184.86,854.2,186.62,855.96,188.77,855.96z"/>
			</g>
		</g>
	</g>
</g>
</svg>