<svg xmlns="http://www.w3.org/2000/svg" xmlns:xlink="http://www.w3.org/1999/xlink" version="1.1" id="Layer_1" x="0px" y="0px" viewBox="0 0 1080 1080" style="enable-background:new 0 0 1080 1080;" xml:space="preserve">
<style type="text/css">
	.st0{fill:none;stroke:#D3D3D3;stroke-miterlimit:10;stroke-dasharray:11.8402,11.8402;}
	.st1{fill:#F2F2F2;}
	.st2{fill:#B4E6FC;}
	.st3{fill:#FFFFFF;}
	.st4{fill:#2A94F4;}
	.st5{fill:#1371B7;}
	.st6{fill:#F4F4F4;}
	.st7{fill:#FFA42C;}
	.st8{fill:#FFE3CA;}
	.st9{fill:#FCD5B6;}
	.st10{fill:#0A3E5B;}
	.st11{fill:#126AA0;}
	.st12{fill:#248DCE;}
	.st13{fill:#1A87D8;}
	.st14{fill:#B0E1FF;}
	.st15{fill:#CCE9FF;}
</style>
<g>
	<circle class="st0" cx="300.2" cy="276" r="131.9"/>
</g>
<g>
	<path class="st1" d="M333.4,159.3c-26,13.6-51.8,30.2-69.9,56.2s-27.3,63.4-16.4,94.8c14.6,41.8,60.7,66.2,60.9,111.5   c0.2,32.4-24.9,57.2-50.1,69s-53.2,16-76.2,33.3c-34.7,26-50.9,76.4-57.6,124.7c-6.9,50.2-4.1,107.3,25.6,143.7   c36.9,45.2,97.8,40.1,150,30.5c69.6-12.9,139-28,208.3-43.1c151.9-33.2,303.9-66.3,455.8-99.5c16.3-3.6,33.2-7.4,46.5-19.4   c26.3-23.7,28.5-72.5,13.2-107.4c-15.3-34.9-43.5-58.5-71.6-79s-57.7-39.9-78.8-70.2c-21-30.3-31.5-75.1-15.6-109.5   c13.5-29.2,42.4-44.8,55.1-74.5c16.6-39.2-2.5-89.2-32.7-114.2C849.8,81.1,470.6,87.5,333.4,159.3z"/>
</g>
<path class="st1" d="M1024.1,1012H55.9c-6.3,0-11.4-5.1-11.4-11.4v-56.8c0-6.3,5.1-11.4,11.4-11.4h968.2c6.3,0,11.4,5.1,11.4,11.4  v56.8C1035.5,1006.9,1030.4,1012,1024.1,1012z"/>
<path class="st2" d="M918.1,948.4H474.6c-6.6,0-12-5.4-12-12V101.4c0-6.6,5.4-12,12-12h443.5c6.6,0,12,5.4,12,12v835.1  C930.1,943,924.7,948.4,918.1,948.4z"/>
<path class="st3" d="M894.2,909.2H498.6c-6,0-10.9-4.9-10.9-10.9V126.1c0-6,4.9-10.9,10.9-10.9h395.6c6,0,10.9,4.9,10.9,10.9v772.2  C905.1,904.3,900.2,909.2,894.2,909.2z"/>
<path class="st4" d="M629.4,922.8h133.9c3.6,0,6.5,2.9,6.5,6.5l0,0c0,3.6-2.9,6.5-6.5,6.5H629.4c-3.6,0-6.5-2.9-6.5-6.5l0,0  C622.9,925.7,625.8,922.8,629.4,922.8z"/>
<path class="st5" d="M955.3,355.1H437.5c-6.6,0-12-5.4-12-12v-92.8c0-6.6,5.4-12,12-12h517.8c6.6,0,12,5.4,12,12v92.8  C967.3,349.7,961.9,355.1,955.3,355.1z"/>
<path class="st6" d="M889.2,445.7H503.5c-4.1,0-7.5-3.4-7.5-7.5v-46.3c0-4.1,3.4-7.5,7.5-7.5h385.7c4.1,0,7.5,3.4,7.5,7.5v46.3  C896.7,442.3,893.4,445.7,889.2,445.7z"/>
<path class="st6" d="M889.2,533.4H503.5c-4.1,0-7.5-3.4-7.5-7.5v-46.3c0-4.1,3.4-7.5,7.5-7.5h385.7c4.1,0,7.5,3.4,7.5,7.5v46.3  C896.7,530,893.4,533.4,889.2,533.4z"/>
<path class="st6" d="M889.2,621.1H503.5c-4.1,0-7.5-3.4-7.5-7.5v-46.3c0-4.1,3.4-7.5,7.5-7.5h385.7c4.1,0,7.5,3.4,7.5,7.5v46.3  C896.7,617.8,893.4,621.1,889.2,621.1z"/>
<path class="st6" d="M889.2,708.8H503.5c-4.1,0-7.5-3.4-7.5-7.5V655c0-4.1,3.4-7.5,7.5-7.5h385.7c4.1,0,7.5,3.4,7.5,7.5v46.3  C896.7,705.5,893.4,708.8,889.2,708.8z"/>
<path class="st6" d="M889.2,796.5H503.5c-4.1,0-7.5-3.4-7.5-7.5v-46.3c0-4.1,3.4-7.5,7.5-7.5h385.7c4.1,0,7.5,3.4,7.5,7.5v46.3  C896.7,793.2,893.4,796.5,889.2,796.5z"/>
<circle class="st3" cx="496.8" cy="296.7" r="43.2"/>
<g>
	<g id="shopping-cart">
		<path class="st7" d="M488.1,312.7c-2.4,0-4.3,2-4.3,4.3s2,4.3,4.3,4.3s4.3-2,4.3-4.3S490.5,312.7,488.1,312.7z M475.1,278v4.3h4.3    l7.8,16.5l-3,5.2c-0.2,0.7-0.4,1.5-0.4,2.2c0,2.4,2,4.3,4.3,4.3h26v-4.3h-25.2c-0.2,0-0.4-0.2-0.4-0.4v-0.2l2-3.7h16    c1.7,0,3-0.9,3.7-2.2l7.8-14.1c0.4-0.4,0.4-0.7,0.4-1.1c0-1.3-0.9-2.2-2.2-2.2h-32.1l-2-4.3H475.1z M509.8,312.7    c-2.4,0-4.3,2-4.3,4.3s2,4.3,4.3,4.3s4.3-2,4.3-4.3S512.1,312.7,509.8,312.7z"/>
	</g>
</g>
<g>
	<path class="st8" d="M415.3,733c-6.9,93.1-24,213.6-24,213.6l-16,1l-7.8-216.3L415.3,733z"/>
	<path class="st8" d="M366.3,735.2c-14.8,92.2-42,210.6-42,210.6l-16-0.4l10.6-216.1L366.3,735.2z"/>
	<path class="st8" d="M238,571.1l-4.8,8.1c0,0-10.5,6.1-11.9,9c-1.4,2.9-3.4,12.8-3.4,12.8l7.1,14.3l13-20.4   c0,4.9,1.1,10.2,3.1,10.2c0.6-5.2,2.3-28.5,3.1-29.7C245.1,574.3,238,571.1,238,571.1z"/>
	<path class="st8" d="M518.4,324.4v-10.2c0,0-5.2-5.3-5.2-10.8c0-5.5-3.8-13.2-3.8-13.2s3.5-3.7,9,11.1c-2.4-11-3.6-15.8-2.7-16.7   c0.9-0.9,5.4-2.8,5.4-2.8l12.5,10.5c1.8,1.2,2.6,3.4,2,5.5l-5.4,17.4l-2.7,1.8v9.2L518.4,324.4z"/>
	<path class="st5" d="M348.8,511.6c-43.2,37-120.7,261.7-162.1,273.7c-5.4,26.8,64.2,51.5,87.4,48.1c31.5-4.6,84.7-44.4,124.3-37.9   c35,5.7,80.2,16.6,80.2,16.6c-11.7-37-36-279.2-63-300.5C388.5,490.4,348.8,511.6,348.8,511.6z"/>
	<path class="st9" d="M406.5,391.4c-1.8,9.2,0,23.6,0,23.6l-21.6-7l3.6-21.3L406.5,391.4z"/>
	<path class="st7" d="M401.5,408.3c11.3-2.1,95.9-7.6,115.8-89c13.5-0.9,13.5,0,13.5,0s-5.4,97.1-101.8,112.8   c-2.7,42.5-13.5,79.5-13.5,79.5h-66.7c0,0-14.4-79.5-15.3-84.1C357.8,409.9,401.5,408.3,401.5,408.3z"/>
	<path class="st7" d="M333.5,427.5c-18,12.9-86.5,93.4-98.2,147c10.8,6.5,10.8,6.5,10.8,6.5s45-77.7,93.5-119   C343.6,448.5,333.5,427.5,333.5,427.5z"/>
	<g>
		<path class="st8" d="M419.2,357.4c3.8,17.9,3.7,33.2-10.6,36.4c-14.2,3.2-37.2-6.9-41-24.8c-3.8-17.9,4.6-35.1,18.8-38.3    S415.4,339.5,419.2,357.4z"/>
		<path class="st10" d="M419.5,336.7c-3,8.5-8.7,17.6-17.7,25c-11.8,12.3-6.4,37.7,5.5,49.1c11.8,11.4-31.7,57.5-54.1,27    c-30.5-41.5,4.6-59.5-0.1-71.1c-12-30,20.4-55.4,58.2-45.8C418,322.7,421.9,329.9,419.5,336.7z"/>
		
			<ellipse transform="matrix(0.9798 -0.1999 0.1999 0.9798 -65.3296 87.2513)" class="st8" cx="399.3" cy="367.1" rx="5.6" ry="8.3"/>
	</g>
	<ellipse class="st4" cx="395.2" cy="372.5" rx="5.9" ry="6"/>
	<g>
		<path class="st5" d="M429.7,977.2C429.7,977.2,429.7,977.2,429.7,977.2c-1.1,0.4-33.4,13.2-47.9-9.5l0,0    c-3.1-4.9-5.4-11.5-6.4-20.2c7.2-0.4,16-1,16-1s15.1,20,23.9,20.2C425.8,967,429.7,977.2,429.7,977.2z"/>
		<path class="st11" d="M429.7,977.2c-1.1,0.4-33.4,13.2-47.9-9.5l0,0l6.2-13.5C391.7,956.9,408.5,985.3,429.7,977.2z"/>
		<polygon class="st12" points="376.5,954.2 378.5,981.2 385.7,981.2 388,954.2   "/>
	</g>
	<g>
		<path class="st5" d="M357.8,979.4C357.8,979.4,357.7,979.4,357.8,979.4c-1.2,0.3-35,7.7-45.9-17.1l0,0c-2.4-5.4-3.6-12.2-3.3-21    c7.1,0.7,16,1.6,16,1.6s11.9,22.2,20.6,23.8C355.4,968.7,357.8,979.4,357.8,979.4z"/>
		<path class="st11" d="M357.7,979.4c-1.1,0.3-35,7.7-45.9-17.1l0,0L320,950C323.3,953.3,335.6,984,357.7,979.4z"/>
		<polygon class="st12" points="308.6,948.1 306.6,975.1 313.7,976.3 320,950   "/>
	</g>
</g>
<path class="st3" d="M883,265.1H561.7c-3.1,0-5.6-2.5-5.6-5.6v-0.4c0-3.1,2.5-5.6,5.6-5.6H883c3.1,0,5.6,2.5,5.6,5.6v0.4  C888.6,262.6,886.1,265.1,883,265.1z"/>
<path class="st3" d="M753.7,287.6H560.5c-2.4,0-4.4-2-4.4-4.4v-2.9c0-2.4,2-4.4,4.4-4.4h193.2c2.4,0,4.4,2,4.4,4.4v2.9  C758.1,285.7,756.1,287.6,753.7,287.6z"/>
<path class="st3" d="M812.7,331.4H561.1c-2.7,0-5-2.2-5-5v-1.7c0-2.7,2.2-5,5-5h251.6c2.7,0,5,2.2,5,5v1.7  C817.6,329.2,815.4,331.4,812.7,331.4z"/>
<g>
	<path class="st2" d="M938.8,291.4c-2.5-1.4-5.1-2.4-7.7-3.5c-1.5-0.6-2.9-1.3-4.2-2.4c-2.5-2-2-5.2,0.9-6.5   c0.8-0.4,1.7-0.5,2.6-0.5c3.4-0.2,6.6,0.4,9.7,1.9c1.5,0.7,2,0.5,2.5-1.1c0.5-1.7,1-3.4,1.5-5.1c0.3-1.1-0.1-1.9-1.2-2.4   c-2-0.9-4-1.5-6.1-1.8c-2.8-0.4-2.8-0.4-2.8-3.2c0-3.9,0-3.9-3.9-3.9c-0.6,0-1.1,0-1.7,0c-1.8,0.1-2.1,0.4-2.2,2.2   c0,0.8,0,1.7,0,2.5c0,2.5,0,2.4-2.4,3.3c-5.7,2.1-9.2,5.9-9.6,12.1c-0.3,5.5,2.5,9.2,7,11.9c2.8,1.7,5.9,2.6,8.8,4   c1.2,0.5,2.2,1.1,3.2,1.9c2.8,2.3,2.3,6.2-1,7.7c-1.8,0.8-3.7,1-5.6,0.7c-3-0.4-5.9-1.2-8.6-2.6c-1.6-0.8-2.1-0.6-2.6,1.1   c-0.5,1.5-0.9,3-1.3,4.5c-0.6,2-0.3,2.5,1.6,3.4c2.5,1.2,5.1,1.8,7.8,2.2c2.1,0.3,2.2,0.4,2.2,2.6c0,1,0,2,0,3c0,1.2,0.6,2,1.9,2   c1.4,0,2.9,0,4.4,0c1.2,0,1.8-0.7,1.8-1.9c0-1.3,0.1-2.7,0-4c-0.1-1.4,0.5-2.1,1.8-2.4c3-0.8,5.6-2.5,7.6-4.9   C948.8,305.6,946.6,295.8,938.8,291.4z"/>
</g>
<path class="st7" d="M876.6,214H517.4c-6.6,0-12-5.4-12-12v-47.1c0-6.6,5.4-12,12-12h359.2c6.6,0,12,5.4,12,12V202  C888.6,208.6,883.2,214,876.6,214z"/>
<circle class="st7" cx="850.5" cy="858.7" r="38.1"/>
<g>
	<g>
		<g>
			<path class="st13" d="M99.9,876.8c-8.6-40.3-35.3-76.4-71.2-96.5c19.2,36.3,42.3,70.7,68.6,102.2L99.9,876.8z"/>
		</g>
		<g>
			<path class="st4" d="M109.5,891.9C75.2,844,58.1,784.1,61.7,725.4c22.2,54.3,39,110.7,50,168.3L109.5,891.9z"/>
		</g>
		<g>
			<path class="st13" d="M99.7,893.6c-1-29.5-2.1-59.2,2.5-88.3c4.6-29.1,15.3-58,35.1-79.8c3,60.3-11.6,121.4-41.5,173.9     L99.7,893.6z"/>
		</g>
		<g>
			<path class="st14" d="M101.1,896.2c-19.3-55.7-16.1-118.9,8.6-172.4c15.5,55.9,1.8,115.3-11.9,171.7L101.1,896.2z"/>
		</g>
		<g>
			<path class="st4" d="M103.7,875.5c5.3-48.9,37.9-93.9,82.7-114.1c-18.2,48.8-49.2,92.7-89.2,126L103.7,875.5z"/>
		</g>
	</g>
	<path class="st15" d="M149.8,867l-5.5,94.9c0,4.6-3.7,8.3-8.3,8.3H70.1c-4.6,0-8.3-3.7-8.3-8.3l-1.3-21.5L56.3,867   c0-4.6,3.7-8.3,8.3-8.3h76.9c3,0,5.6,1.6,7.1,4v0C149.4,863.9,149.8,865.4,149.8,867z"/>
	<g>
		<path class="st15" d="M149.8,867l-5.5,94.9c0,4.6-3.7,8.3-8.3,8.3H70.1c-4.6,0-8.3-3.7-8.3-8.3l-1.3-21.5    c30.7-8.8,62.4-46.7,88.1-77.8C149.4,863.9,149.8,865.4,149.8,867z"/>
	</g>
</g>
</svg>